<?xml version="1.0" encoding="utf-8" standalone="no"?>
<!DOCTYPE svg PUBLIC "-//W3C//DTD SVG 1.1//EN"
  "http://www.w3.org/Graphics/SVG/1.1/DTD/svg11.dtd">
<!-- Created with matplotlib (https://matplotlib.org/) -->
<svg height="288pt" version="1.1" viewBox="0 0 432 288" width="432pt" xmlns="http://www.w3.org/2000/svg" xmlns:xlink="http://www.w3.org/1999/xlink">
 <defs>
  <style type="text/css">
*{stroke-linecap:butt;stroke-linejoin:round;}
  </style>
 </defs>
 <g id="figure_1">
  <g id="patch_1">
   <path d="M 0 288 
L 432 288 
L 432 0 
L 0 0 
z
" style="fill:#ffffff;"/>
  </g>
  <g id="axes_1">
   <g id="patch_2">
    <path d="M 44.55 246.2 
L 412.47176 246.2 
L 412.47176 26.8 
L 44.55 26.8 
z
" style="fill:#ffffff;"/>
   </g>
   <g id="PathCollection_1">
    <defs>
     <path d="M 0 3.535534 
C 0.937635 3.535534 1.836992 3.163008 2.5 2.5 
C 3.163008 1.836992 3.535534 0.937635 3.535534 0 
C 3.535534 -0.937635 3.163008 -1.836992 2.5 -2.5 
C 1.836992 -3.163008 0.937635 -3.535534 0 -3.535534 
C -0.937635 -3.535534 -1.836992 -3.163008 -2.5 -2.5 
C -3.163008 -1.836992 -3.535534 -0.937635 -3.535534 0 
C -3.535534 0.937635 -3.163008 1.836992 -2.5 2.5 
C -1.836992 3.163008 -0.937635 3.535534 0 3.535534 
z
" id="m56764ae56f" style="stroke:#000000;"/>
    </defs>
    <g clip-path="url(#pdfd1ca1c26)">
     <use style="stroke:#000000;" x="65.070805" xlink:href="#m56764ae56f" y="88.418703"/>
     <use style="stroke:#000000;" x="85.28571" xlink:href="#m56764ae56f" y="105.351558"/>
     <use style="stroke:#000000;" x="109.557661" xlink:href="#m56764ae56f" y="105.976864"/>
     <use style="stroke:#000000;" x="145.178793" xlink:href="#m56764ae56f" y="137.517647"/>
     <use style="stroke:#000000;" x="185.641568" xlink:href="#m56764ae56f" y="154.460398"/>
     <use style="stroke:#000000;" x="238.950192" xlink:href="#m56764ae56f" y="158.044906"/>
     <use style="stroke:#000000;" x="294.028005" xlink:href="#m56764ae56f" y="195.791781"/>
     <use style="stroke:#000000;" x="391.950954" xlink:href="#m56764ae56f" y="218.621445"/>
    </g>
   </g>
   <g id="PolyCollection_1">
    <path clip-path="url(#pdfd1ca1c26)" d="M 44.55 76.501762 
L 44.55 123.02823 
L 48.266381 123.723955 
L 51.982763 124.454685 
L 55.699144 125.259299 
L 59.415526 126.177491 
L 63.131907 127.099272 
L 66.848288 127.982423 
L 70.56467 128.768821 
L 74.281051 129.66437 
L 77.997433 130.559069 
L 81.713814 131.351553 
L 85.430196 132.106922 
L 89.146577 132.857731 
L 92.862958 133.60854 
L 96.57934 134.457207 
L 100.295721 135.17912 
L 104.012103 135.891764 
L 107.728484 136.626694 
L 111.444865 137.378935 
L 115.161247 138.1302 
L 118.877628 138.881465 
L 122.59401 139.789962 
L 126.310391 140.7057 
L 130.026772 141.581223 
L 133.743154 142.311917 
L 137.459535 143.04261 
L 141.175917 143.773304 
L 144.892298 144.57487 
L 148.60868 145.553304 
L 152.325061 146.539682 
L 156.041442 147.444846 
L 159.757824 148.472253 
L 163.474205 149.385496 
L 167.190587 150.148473 
L 170.906968 150.924985 
L 174.623349 151.860945 
L 178.339731 152.770722 
L 182.056112 153.64589 
L 185.772494 154.449261 
L 189.488875 155.089422 
L 193.205256 155.874438 
L 196.921638 156.807507 
L 200.638019 157.659284 
L 204.354401 158.438597 
L 208.070782 159.284359 
L 211.787163 160.185107 
L 215.503545 161.082507 
L 219.219926 161.983531 
L 222.936308 162.818891 
L 226.652689 163.71868 
L 230.369071 164.691548 
L 234.085452 165.602962 
L 237.801833 166.532299 
L 241.518215 167.585464 
L 245.234596 168.569075 
L 248.950978 169.476463 
L 252.667359 170.354291 
L 256.38374 171.437714 
L 260.100122 172.637682 
L 263.816503 173.624061 
L 267.532885 174.603523 
L 271.249266 175.693507 
L 274.965647 176.863429 
L 278.682029 178.083556 
L 282.39841 179.100282 
L 286.114792 180.075238 
L 289.831173 181.20934 
L 293.547555 182.178802 
L 297.263936 183.382485 
L 300.980317 184.482784 
L 304.696699 185.64013 
L 308.41308 186.687713 
L 312.129462 187.778634 
L 315.845843 189.060014 
L 319.562224 190.314562 
L 323.278606 191.712959 
L 326.994987 192.670951 
L 330.711369 193.660588 
L 334.42775 194.910728 
L 338.144131 196.007575 
L 341.860513 197.150348 
L 345.576894 198.336928 
L 349.293276 199.533286 
L 353.009657 200.877106 
L 356.726039 202.291835 
L 360.44242 203.706107 
L 364.158801 205.029796 
L 367.875183 206.300349 
L 371.591564 207.383515 
L 375.307946 208.57147 
L 379.024327 209.983592 
L 382.740708 211.13842 
L 386.45709 212.289921 
L 390.173471 213.538704 
L 393.889853 214.852205 
L 397.606234 216.165706 
L 401.322615 217.480343 
L 405.038997 218.799352 
L 408.755378 220.116585 
L 412.47176 221.429697 
L 412.47176 190.175993 
L 412.47176 190.175993 
L 408.755378 189.306045 
L 405.038997 188.602136 
L 401.322615 187.900574 
L 397.606234 187.124595 
L 393.889853 186.224937 
L 390.173471 185.289943 
L 386.45709 184.409509 
L 382.740708 183.633117 
L 379.024327 182.856724 
L 375.307946 181.767121 
L 371.591564 180.608167 
L 367.875183 179.639516 
L 364.158801 178.607426 
L 360.44242 177.718453 
L 356.726039 176.848624 
L 353.009657 175.947829 
L 349.293276 175.119504 
L 345.576894 174.315982 
L 341.860513 173.321902 
L 338.144131 172.352885 
L 334.42775 171.50854 
L 330.711369 170.618713 
L 326.994987 169.728886 
L 323.278606 168.650389 
L 319.562224 167.835737 
L 315.845843 166.83826 
L 312.129462 165.7689 
L 308.41308 164.674318 
L 304.696699 163.686408 
L 300.980317 162.934572 
L 297.263936 162.093508 
L 293.547555 160.920512 
L 289.831173 159.937294 
L 286.114792 159.058577 
L 282.39841 158.141571 
L 278.682029 156.994803 
L 274.965647 155.780866 
L 271.249266 154.548289 
L 267.532885 153.581294 
L 263.816503 152.383608 
L 260.100122 151.270864 
L 256.38374 150.034569 
L 252.667359 148.828777 
L 248.950978 147.690687 
L 245.234596 146.547683 
L 241.518215 145.40539 
L 237.801833 144.220158 
L 234.085452 143.117031 
L 230.369071 141.93158 
L 226.652689 140.606761 
L 222.936308 139.39264 
L 219.219926 138.075023 
L 215.503545 136.977 
L 211.787163 135.681514 
L 208.070782 134.452399 
L 204.354401 133.253136 
L 200.638019 131.975889 
L 196.921638 130.693584 
L 193.205256 129.317983 
L 189.488875 127.984543 
L 185.772494 126.651103 
L 182.056112 125.320567 
L 178.339731 124.060142 
L 174.623349 122.673265 
L 170.906968 121.399219 
L 167.190587 120.133479 
L 163.474205 118.867739 
L 159.757824 117.601999 
L 156.041442 116.33734 
L 152.325061 115.073915 
L 148.60868 113.810491 
L 144.892298 112.476107 
L 141.175917 111.077502 
L 137.459535 109.837554 
L 133.743154 108.59989 
L 130.026772 107.265884 
L 126.310391 105.92306 
L 122.59401 104.537484 
L 118.877628 103.177119 
L 115.161247 101.875996 
L 111.444865 100.552045 
L 107.728484 99.209715 
L 104.012103 98.032427 
L 100.295721 96.750942 
L 96.57934 95.469457 
L 92.862958 94.097256 
L 89.146577 92.699044 
L 85.430196 91.300831 
L 81.713814 89.902619 
L 77.997433 88.504406 
L 74.281051 87.134612 
L 70.56467 85.853643 
L 66.848288 84.572757 
L 63.131907 83.295966 
L 59.415526 82.013021 
L 55.699144 80.729764 
L 51.982763 79.448795 
L 48.266381 77.993399 
L 44.55 76.501762 
z
" style="fill-opacity:0.15;"/>
   </g>
   <g id="matplotlib.axis_1">
    <g id="xtick_1">
     <g id="line2d_1">
      <defs>
       <path d="M 0 0 
L 0 3.5 
" id="m232c9d422c" style="stroke:#000000;stroke-width:0.8;"/>
      </defs>
      <g>
       <use style="stroke:#000000;stroke-width:0.8;" x="63.760946" xlink:href="#m232c9d422c" y="246.2"/>
      </g>
     </g>
     <g id="text_1">
      <!-- 2.5 -->
      <defs>
       <path d="M 19.1875 8.296875 
L 53.609375 8.296875 
L 53.609375 0 
L 7.328125 0 
L 7.328125 8.296875 
Q 12.9375 14.109375 22.625 23.890625 
Q 32.328125 33.6875 34.8125 36.53125 
Q 39.546875 41.84375 41.421875 45.53125 
Q 43.3125 49.21875 43.3125 52.78125 
Q 43.3125 58.59375 39.234375 62.25 
Q 35.15625 65.921875 28.609375 65.921875 
Q 23.96875 65.921875 18.8125 64.3125 
Q 13.671875 62.703125 7.8125 59.421875 
L 7.8125 69.390625 
Q 13.765625 71.78125 18.9375 73 
Q 24.125 74.21875 28.421875 74.21875 
Q 39.75 74.21875 46.484375 68.546875 
Q 53.21875 62.890625 53.21875 53.421875 
Q 53.21875 48.921875 51.53125 44.890625 
Q 49.859375 40.875 45.40625 35.40625 
Q 44.1875 33.984375 37.640625 27.21875 
Q 31.109375 20.453125 19.1875 8.296875 
z
" id="DejaVuSans-50"/>
       <path d="M 10.6875 12.40625 
L 21 12.40625 
L 21 0 
L 10.6875 0 
z
" id="DejaVuSans-46"/>
       <path d="M 10.796875 72.90625 
L 49.515625 72.90625 
L 49.515625 64.59375 
L 19.828125 64.59375 
L 19.828125 46.734375 
Q 21.96875 47.46875 24.109375 47.828125 
Q 26.265625 48.1875 28.421875 48.1875 
Q 40.625 48.1875 47.75 41.5 
Q 54.890625 34.8125 54.890625 23.390625 
Q 54.890625 11.625 47.5625 5.09375 
Q 40.234375 -1.421875 26.90625 -1.421875 
Q 22.3125 -1.421875 17.546875 -0.640625 
Q 12.796875 0.140625 7.71875 1.703125 
L 7.71875 11.625 
Q 12.109375 9.234375 16.796875 8.0625 
Q 21.484375 6.890625 26.703125 6.890625 
Q 35.15625 6.890625 40.078125 11.328125 
Q 45.015625 15.765625 45.015625 23.390625 
Q 45.015625 31 40.078125 35.4375 
Q 35.15625 39.890625 26.703125 39.890625 
Q 22.75 39.890625 18.8125 39.015625 
Q 14.890625 38.140625 10.796875 36.28125 
z
" id="DejaVuSans-53"/>
      </defs>
      <g transform="translate(55.809384 260.798437)scale(0.1 -0.1)">
       <use xlink:href="#DejaVuSans-50"/>
       <use x="63.623047" xlink:href="#DejaVuSans-46"/>
       <use x="95.410156" xlink:href="#DejaVuSans-53"/>
      </g>
     </g>
    </g>
    <g id="xtick_2">
     <g id="line2d_2">
      <g>
       <use style="stroke:#000000;stroke-width:0.8;" x="113.210321" xlink:href="#m232c9d422c" y="246.2"/>
      </g>
     </g>
     <g id="text_2">
      <!-- 5.0 -->
      <defs>
       <path d="M 31.78125 66.40625 
Q 24.171875 66.40625 20.328125 58.90625 
Q 16.5 51.421875 16.5 36.375 
Q 16.5 21.390625 20.328125 13.890625 
Q 24.171875 6.390625 31.78125 6.390625 
Q 39.453125 6.390625 43.28125 13.890625 
Q 47.125 21.390625 47.125 36.375 
Q 47.125 51.421875 43.28125 58.90625 
Q 39.453125 66.40625 31.78125 66.40625 
z
M 31.78125 74.21875 
Q 44.046875 74.21875 50.515625 64.515625 
Q 56.984375 54.828125 56.984375 36.375 
Q 56.984375 17.96875 50.515625 8.265625 
Q 44.046875 -1.421875 31.78125 -1.421875 
Q 19.53125 -1.421875 13.0625 8.265625 
Q 6.59375 17.96875 6.59375 36.375 
Q 6.59375 54.828125 13.0625 64.515625 
Q 19.53125 74.21875 31.78125 74.21875 
z
" id="DejaVuSans-48"/>
      </defs>
      <g transform="translate(105.258759 260.798437)scale(0.1 -0.1)">
       <use xlink:href="#DejaVuSans-53"/>
       <use x="63.623047" xlink:href="#DejaVuSans-46"/>
       <use x="95.410156" xlink:href="#DejaVuSans-48"/>
      </g>
     </g>
    </g>
    <g id="xtick_3">
     <g id="line2d_3">
      <g>
       <use style="stroke:#000000;stroke-width:0.8;" x="162.659697" xlink:href="#m232c9d422c" y="246.2"/>
      </g>
     </g>
     <g id="text_3">
      <!-- 7.5 -->
      <defs>
       <path d="M 8.203125 72.90625 
L 55.078125 72.90625 
L 55.078125 68.703125 
L 28.609375 0 
L 18.3125 0 
L 43.21875 64.59375 
L 8.203125 64.59375 
z
" id="DejaVuSans-55"/>
      </defs>
      <g transform="translate(154.708134 260.798437)scale(0.1 -0.1)">
       <use xlink:href="#DejaVuSans-55"/>
       <use x="63.623047" xlink:href="#DejaVuSans-46"/>
       <use x="95.410156" xlink:href="#DejaVuSans-53"/>
      </g>
     </g>
    </g>
    <g id="xtick_4">
     <g id="line2d_4">
      <g>
       <use style="stroke:#000000;stroke-width:0.8;" x="212.109072" xlink:href="#m232c9d422c" y="246.2"/>
      </g>
     </g>
     <g id="text_4">
      <!-- 10.0 -->
      <defs>
       <path d="M 12.40625 8.296875 
L 28.515625 8.296875 
L 28.515625 63.921875 
L 10.984375 60.40625 
L 10.984375 69.390625 
L 28.421875 72.90625 
L 38.28125 72.90625 
L 38.28125 8.296875 
L 54.390625 8.296875 
L 54.390625 0 
L 12.40625 0 
z
" id="DejaVuSans-49"/>
      </defs>
      <g transform="translate(200.976259 260.798437)scale(0.1 -0.1)">
       <use xlink:href="#DejaVuSans-49"/>
       <use x="63.623047" xlink:href="#DejaVuSans-48"/>
       <use x="127.246094" xlink:href="#DejaVuSans-46"/>
       <use x="159.033203" xlink:href="#DejaVuSans-48"/>
      </g>
     </g>
    </g>
    <g id="xtick_5">
     <g id="line2d_5">
      <g>
       <use style="stroke:#000000;stroke-width:0.8;" x="261.558447" xlink:href="#m232c9d422c" y="246.2"/>
      </g>
     </g>
     <g id="text_5">
      <!-- 12.5 -->
      <g transform="translate(250.425634 260.798437)scale(0.1 -0.1)">
       <use xlink:href="#DejaVuSans-49"/>
       <use x="63.623047" xlink:href="#DejaVuSans-50"/>
       <use x="127.246094" xlink:href="#DejaVuSans-46"/>
       <use x="159.033203" xlink:href="#DejaVuSans-53"/>
      </g>
     </g>
    </g>
    <g id="xtick_6">
     <g id="line2d_6">
      <g>
       <use style="stroke:#000000;stroke-width:0.8;" x="311.007822" xlink:href="#m232c9d422c" y="246.2"/>
      </g>
     </g>
     <g id="text_6">
      <!-- 15.0 -->
      <g transform="translate(299.875009 260.798437)scale(0.1 -0.1)">
       <use xlink:href="#DejaVuSans-49"/>
       <use x="63.623047" xlink:href="#DejaVuSans-53"/>
       <use x="127.246094" xlink:href="#DejaVuSans-46"/>
       <use x="159.033203" xlink:href="#DejaVuSans-48"/>
      </g>
     </g>
    </g>
    <g id="xtick_7">
     <g id="line2d_7">
      <g>
       <use style="stroke:#000000;stroke-width:0.8;" x="360.457197" xlink:href="#m232c9d422c" y="246.2"/>
      </g>
     </g>
     <g id="text_7">
      <!-- 17.5 -->
      <g transform="translate(349.324384 260.798437)scale(0.1 -0.1)">
       <use xlink:href="#DejaVuSans-49"/>
       <use x="63.623047" xlink:href="#DejaVuSans-55"/>
       <use x="127.246094" xlink:href="#DejaVuSans-46"/>
       <use x="159.033203" xlink:href="#DejaVuSans-53"/>
      </g>
     </g>
    </g>
    <g id="xtick_8">
     <g id="line2d_8">
      <g>
       <use style="stroke:#000000;stroke-width:0.8;" x="409.906572" xlink:href="#m232c9d422c" y="246.2"/>
      </g>
     </g>
     <g id="text_8">
      <!-- 20.0 -->
      <g transform="translate(398.773759 260.798437)scale(0.1 -0.1)">
       <use xlink:href="#DejaVuSans-50"/>
       <use x="63.623047" xlink:href="#DejaVuSans-48"/>
       <use x="127.246094" xlink:href="#DejaVuSans-46"/>
       <use x="159.033203" xlink:href="#DejaVuSans-48"/>
      </g>
     </g>
    </g>
    <g id="text_9">
     <!-- Actual Distance (km) -->
     <defs>
      <path d="M 34.1875 63.1875 
L 20.796875 26.90625 
L 47.609375 26.90625 
z
M 28.609375 72.90625 
L 39.796875 72.90625 
L 67.578125 0 
L 57.328125 0 
L 50.6875 18.703125 
L 17.828125 18.703125 
L 11.1875 0 
L 0.78125 0 
z
" id="DejaVuSans-65"/>
      <path d="M 48.78125 52.59375 
L 48.78125 44.1875 
Q 44.96875 46.296875 41.140625 47.34375 
Q 37.3125 48.390625 33.40625 48.390625 
Q 24.65625 48.390625 19.8125 42.84375 
Q 14.984375 37.3125 14.984375 27.296875 
Q 14.984375 17.28125 19.8125 11.734375 
Q 24.65625 6.203125 33.40625 6.203125 
Q 37.3125 6.203125 41.140625 7.25 
Q 44.96875 8.296875 48.78125 10.40625 
L 48.78125 2.09375 
Q 45.015625 0.34375 40.984375 -0.53125 
Q 36.96875 -1.421875 32.421875 -1.421875 
Q 20.0625 -1.421875 12.78125 6.34375 
Q 5.515625 14.109375 5.515625 27.296875 
Q 5.515625 40.671875 12.859375 48.328125 
Q 20.21875 56 33.015625 56 
Q 37.15625 56 41.109375 55.140625 
Q 45.0625 54.296875 48.78125 52.59375 
z
" id="DejaVuSans-99"/>
      <path d="M 18.3125 70.21875 
L 18.3125 54.6875 
L 36.8125 54.6875 
L 36.8125 47.703125 
L 18.3125 47.703125 
L 18.3125 18.015625 
Q 18.3125 11.328125 20.140625 9.421875 
Q 21.96875 7.515625 27.59375 7.515625 
L 36.8125 7.515625 
L 36.8125 0 
L 27.59375 0 
Q 17.1875 0 13.234375 3.875 
Q 9.28125 7.765625 9.28125 18.015625 
L 9.28125 47.703125 
L 2.6875 47.703125 
L 2.6875 54.6875 
L 9.28125 54.6875 
L 9.28125 70.21875 
z
" id="DejaVuSans-116"/>
      <path d="M 8.5 21.578125 
L 8.5 54.6875 
L 17.484375 54.6875 
L 17.484375 21.921875 
Q 17.484375 14.15625 20.5 10.265625 
Q 23.53125 6.390625 29.59375 6.390625 
Q 36.859375 6.390625 41.078125 11.03125 
Q 45.3125 15.671875 45.3125 23.6875 
L 45.3125 54.6875 
L 54.296875 54.6875 
L 54.296875 0 
L 45.3125 0 
L 45.3125 8.40625 
Q 42.046875 3.421875 37.71875 1 
Q 33.40625 -1.421875 27.6875 -1.421875 
Q 18.265625 -1.421875 13.375 4.4375 
Q 8.5 10.296875 8.5 21.578125 
z
M 31.109375 56 
z
" id="DejaVuSans-117"/>
      <path d="M 34.28125 27.484375 
Q 23.390625 27.484375 19.1875 25 
Q 14.984375 22.515625 14.984375 16.5 
Q 14.984375 11.71875 18.140625 8.90625 
Q 21.296875 6.109375 26.703125 6.109375 
Q 34.1875 6.109375 38.703125 11.40625 
Q 43.21875 16.703125 43.21875 25.484375 
L 43.21875 27.484375 
z
M 52.203125 31.203125 
L 52.203125 0 
L 43.21875 0 
L 43.21875 8.296875 
Q 40.140625 3.328125 35.546875 0.953125 
Q 30.953125 -1.421875 24.3125 -1.421875 
Q 15.921875 -1.421875 10.953125 3.296875 
Q 6 8.015625 6 15.921875 
Q 6 25.140625 12.171875 29.828125 
Q 18.359375 34.515625 30.609375 34.515625 
L 43.21875 34.515625 
L 43.21875 35.40625 
Q 43.21875 41.609375 39.140625 45 
Q 35.0625 48.390625 27.6875 48.390625 
Q 23 48.390625 18.546875 47.265625 
Q 14.109375 46.140625 10.015625 43.890625 
L 10.015625 52.203125 
Q 14.9375 54.109375 19.578125 55.046875 
Q 24.21875 56 28.609375 56 
Q 40.484375 56 46.34375 49.84375 
Q 52.203125 43.703125 52.203125 31.203125 
z
" id="DejaVuSans-97"/>
      <path d="M 9.421875 75.984375 
L 18.40625 75.984375 
L 18.40625 0 
L 9.421875 0 
z
" id="DejaVuSans-108"/>
      <path id="DejaVuSans-32"/>
      <path d="M 19.671875 64.796875 
L 19.671875 8.109375 
L 31.59375 8.109375 
Q 46.6875 8.109375 53.6875 14.9375 
Q 60.6875 21.78125 60.6875 36.53125 
Q 60.6875 51.171875 53.6875 57.984375 
Q 46.6875 64.796875 31.59375 64.796875 
z
M 9.8125 72.90625 
L 30.078125 72.90625 
Q 51.265625 72.90625 61.171875 64.09375 
Q 71.09375 55.28125 71.09375 36.53125 
Q 71.09375 17.671875 61.125 8.828125 
Q 51.171875 0 30.078125 0 
L 9.8125 0 
z
" id="DejaVuSans-68"/>
      <path d="M 9.421875 54.6875 
L 18.40625 54.6875 
L 18.40625 0 
L 9.421875 0 
z
M 9.421875 75.984375 
L 18.40625 75.984375 
L 18.40625 64.59375 
L 9.421875 64.59375 
z
" id="DejaVuSans-105"/>
      <path d="M 44.28125 53.078125 
L 44.28125 44.578125 
Q 40.484375 46.53125 36.375 47.5 
Q 32.28125 48.484375 27.875 48.484375 
Q 21.1875 48.484375 17.84375 46.4375 
Q 14.5 44.390625 14.5 40.28125 
Q 14.5 37.15625 16.890625 35.375 
Q 19.28125 33.59375 26.515625 31.984375 
L 29.59375 31.296875 
Q 39.15625 29.25 43.1875 25.515625 
Q 47.21875 21.78125 47.21875 15.09375 
Q 47.21875 7.46875 41.1875 3.015625 
Q 35.15625 -1.421875 24.609375 -1.421875 
Q 20.21875 -1.421875 15.453125 -0.5625 
Q 10.6875 0.296875 5.421875 2 
L 5.421875 11.28125 
Q 10.40625 8.6875 15.234375 7.390625 
Q 20.0625 6.109375 24.8125 6.109375 
Q 31.15625 6.109375 34.5625 8.28125 
Q 37.984375 10.453125 37.984375 14.40625 
Q 37.984375 18.0625 35.515625 20.015625 
Q 33.0625 21.96875 24.703125 23.78125 
L 21.578125 24.515625 
Q 13.234375 26.265625 9.515625 29.90625 
Q 5.8125 33.546875 5.8125 39.890625 
Q 5.8125 47.609375 11.28125 51.796875 
Q 16.75 56 26.8125 56 
Q 31.78125 56 36.171875 55.265625 
Q 40.578125 54.546875 44.28125 53.078125 
z
" id="DejaVuSans-115"/>
      <path d="M 54.890625 33.015625 
L 54.890625 0 
L 45.90625 0 
L 45.90625 32.71875 
Q 45.90625 40.484375 42.875 44.328125 
Q 39.84375 48.1875 33.796875 48.1875 
Q 26.515625 48.1875 22.3125 43.546875 
Q 18.109375 38.921875 18.109375 30.90625 
L 18.109375 0 
L 9.078125 0 
L 9.078125 54.6875 
L 18.109375 54.6875 
L 18.109375 46.1875 
Q 21.34375 51.125 25.703125 53.5625 
Q 30.078125 56 35.796875 56 
Q 45.21875 56 50.046875 50.171875 
Q 54.890625 44.34375 54.890625 33.015625 
z
" id="DejaVuSans-110"/>
      <path d="M 56.203125 29.59375 
L 56.203125 25.203125 
L 14.890625 25.203125 
Q 15.484375 15.921875 20.484375 11.0625 
Q 25.484375 6.203125 34.421875 6.203125 
Q 39.59375 6.203125 44.453125 7.46875 
Q 49.3125 8.734375 54.109375 11.28125 
L 54.109375 2.78125 
Q 49.265625 0.734375 44.1875 -0.34375 
Q 39.109375 -1.421875 33.890625 -1.421875 
Q 20.796875 -1.421875 13.15625 6.1875 
Q 5.515625 13.8125 5.515625 26.8125 
Q 5.515625 40.234375 12.765625 48.109375 
Q 20.015625 56 32.328125 56 
Q 43.359375 56 49.78125 48.890625 
Q 56.203125 41.796875 56.203125 29.59375 
z
M 47.21875 32.234375 
Q 47.125 39.59375 43.09375 43.984375 
Q 39.0625 48.390625 32.421875 48.390625 
Q 24.90625 48.390625 20.390625 44.140625 
Q 15.875 39.890625 15.1875 32.171875 
z
" id="DejaVuSans-101"/>
      <path d="M 31 75.875 
Q 24.46875 64.65625 21.28125 53.65625 
Q 18.109375 42.671875 18.109375 31.390625 
Q 18.109375 20.125 21.3125 9.0625 
Q 24.515625 -2 31 -13.1875 
L 23.1875 -13.1875 
Q 15.875 -1.703125 12.234375 9.375 
Q 8.59375 20.453125 8.59375 31.390625 
Q 8.59375 42.28125 12.203125 53.3125 
Q 15.828125 64.359375 23.1875 75.875 
z
" id="DejaVuSans-40"/>
      <path d="M 9.078125 75.984375 
L 18.109375 75.984375 
L 18.109375 31.109375 
L 44.921875 54.6875 
L 56.390625 54.6875 
L 27.390625 29.109375 
L 57.625 0 
L 45.90625 0 
L 18.109375 26.703125 
L 18.109375 0 
L 9.078125 0 
z
" id="DejaVuSans-107"/>
      <path d="M 52 44.1875 
Q 55.375 50.25 60.0625 53.125 
Q 64.75 56 71.09375 56 
Q 79.640625 56 84.28125 50.015625 
Q 88.921875 44.046875 88.921875 33.015625 
L 88.921875 0 
L 79.890625 0 
L 79.890625 32.71875 
Q 79.890625 40.578125 77.09375 44.375 
Q 74.3125 48.1875 68.609375 48.1875 
Q 61.625 48.1875 57.5625 43.546875 
Q 53.515625 38.921875 53.515625 30.90625 
L 53.515625 0 
L 44.484375 0 
L 44.484375 32.71875 
Q 44.484375 40.625 41.703125 44.40625 
Q 38.921875 48.1875 33.109375 48.1875 
Q 26.21875 48.1875 22.15625 43.53125 
Q 18.109375 38.875 18.109375 30.90625 
L 18.109375 0 
L 9.078125 0 
L 9.078125 54.6875 
L 18.109375 54.6875 
L 18.109375 46.1875 
Q 21.1875 51.21875 25.484375 53.609375 
Q 29.78125 56 35.6875 56 
Q 41.65625 56 45.828125 52.96875 
Q 50 49.953125 52 44.1875 
z
" id="DejaVuSans-109"/>
      <path d="M 8.015625 75.875 
L 15.828125 75.875 
Q 23.140625 64.359375 26.78125 53.3125 
Q 30.421875 42.28125 30.421875 31.390625 
Q 30.421875 20.453125 26.78125 9.375 
Q 23.140625 -1.703125 15.828125 -13.1875 
L 8.015625 -13.1875 
Q 14.5 -2 17.703125 9.0625 
Q 20.90625 20.125 20.90625 31.390625 
Q 20.90625 42.671875 17.703125 53.65625 
Q 14.5 64.65625 8.015625 75.875 
z
" id="DejaVuSans-41"/>
     </defs>
     <g transform="translate(176.052286 274.476562)scale(0.1 -0.1)">
      <use xlink:href="#DejaVuSans-65"/>
      <use x="68.392578" xlink:href="#DejaVuSans-99"/>
      <use x="123.373047" xlink:href="#DejaVuSans-116"/>
      <use x="162.582031" xlink:href="#DejaVuSans-117"/>
      <use x="225.960938" xlink:href="#DejaVuSans-97"/>
      <use x="287.240234" xlink:href="#DejaVuSans-108"/>
      <use x="315.023438" xlink:href="#DejaVuSans-32"/>
      <use x="346.810547" xlink:href="#DejaVuSans-68"/>
      <use x="423.8125" xlink:href="#DejaVuSans-105"/>
      <use x="451.595703" xlink:href="#DejaVuSans-115"/>
      <use x="503.695312" xlink:href="#DejaVuSans-116"/>
      <use x="542.904297" xlink:href="#DejaVuSans-97"/>
      <use x="604.183594" xlink:href="#DejaVuSans-110"/>
      <use x="667.5625" xlink:href="#DejaVuSans-99"/>
      <use x="722.542969" xlink:href="#DejaVuSans-101"/>
      <use x="784.066406" xlink:href="#DejaVuSans-32"/>
      <use x="815.853516" xlink:href="#DejaVuSans-40"/>
      <use x="854.867188" xlink:href="#DejaVuSans-107"/>
      <use x="912.777344" xlink:href="#DejaVuSans-109"/>
      <use x="1010.189453" xlink:href="#DejaVuSans-41"/>
     </g>
    </g>
   </g>
   <g id="matplotlib.axis_2">
    <g id="ytick_1">
     <g id="line2d_9">
      <defs>
       <path d="M 0 0 
L -3.5 0 
" id="m779f6419eb" style="stroke:#000000;stroke-width:0.8;"/>
      </defs>
      <g>
       <use style="stroke:#000000;stroke-width:0.8;" x="44.55" xlink:href="#m779f6419eb" y="226.942211"/>
      </g>
     </g>
     <g id="text_10">
      <!-- 16 -->
      <defs>
       <path d="M 33.015625 40.375 
Q 26.375 40.375 22.484375 35.828125 
Q 18.609375 31.296875 18.609375 23.390625 
Q 18.609375 15.53125 22.484375 10.953125 
Q 26.375 6.390625 33.015625 6.390625 
Q 39.65625 6.390625 43.53125 10.953125 
Q 47.40625 15.53125 47.40625 23.390625 
Q 47.40625 31.296875 43.53125 35.828125 
Q 39.65625 40.375 33.015625 40.375 
z
M 52.59375 71.296875 
L 52.59375 62.3125 
Q 48.875 64.0625 45.09375 64.984375 
Q 41.3125 65.921875 37.59375 65.921875 
Q 27.828125 65.921875 22.671875 59.328125 
Q 17.53125 52.734375 16.796875 39.40625 
Q 19.671875 43.65625 24.015625 45.921875 
Q 28.375 48.1875 33.59375 48.1875 
Q 44.578125 48.1875 50.953125 41.515625 
Q 57.328125 34.859375 57.328125 23.390625 
Q 57.328125 12.15625 50.6875 5.359375 
Q 44.046875 -1.421875 33.015625 -1.421875 
Q 20.359375 -1.421875 13.671875 8.265625 
Q 6.984375 17.96875 6.984375 36.375 
Q 6.984375 53.65625 15.1875 63.9375 
Q 23.390625 74.21875 37.203125 74.21875 
Q 40.921875 74.21875 44.703125 73.484375 
Q 48.484375 72.75 52.59375 71.296875 
z
" id="DejaVuSans-54"/>
      </defs>
      <g transform="translate(24.825 230.74143)scale(0.1 -0.1)">
       <use xlink:href="#DejaVuSans-49"/>
       <use x="63.623047" xlink:href="#DejaVuSans-54"/>
      </g>
     </g>
    </g>
    <g id="ytick_2">
     <g id="line2d_10">
      <g>
       <use style="stroke:#000000;stroke-width:0.8;" x="44.55" xlink:href="#m779f6419eb" y="196.612401"/>
      </g>
     </g>
     <g id="text_11">
      <!-- 18 -->
      <defs>
       <path d="M 31.78125 34.625 
Q 24.75 34.625 20.71875 30.859375 
Q 16.703125 27.09375 16.703125 20.515625 
Q 16.703125 13.921875 20.71875 10.15625 
Q 24.75 6.390625 31.78125 6.390625 
Q 38.8125 6.390625 42.859375 10.171875 
Q 46.921875 13.96875 46.921875 20.515625 
Q 46.921875 27.09375 42.890625 30.859375 
Q 38.875 34.625 31.78125 34.625 
z
M 21.921875 38.8125 
Q 15.578125 40.375 12.03125 44.71875 
Q 8.5 49.078125 8.5 55.328125 
Q 8.5 64.0625 14.71875 69.140625 
Q 20.953125 74.21875 31.78125 74.21875 
Q 42.671875 74.21875 48.875 69.140625 
Q 55.078125 64.0625 55.078125 55.328125 
Q 55.078125 49.078125 51.53125 44.71875 
Q 48 40.375 41.703125 38.8125 
Q 48.828125 37.15625 52.796875 32.3125 
Q 56.78125 27.484375 56.78125 20.515625 
Q 56.78125 9.90625 50.3125 4.234375 
Q 43.84375 -1.421875 31.78125 -1.421875 
Q 19.734375 -1.421875 13.25 4.234375 
Q 6.78125 9.90625 6.78125 20.515625 
Q 6.78125 27.484375 10.78125 32.3125 
Q 14.796875 37.15625 21.921875 38.8125 
z
M 18.3125 54.390625 
Q 18.3125 48.734375 21.84375 45.5625 
Q 25.390625 42.390625 31.78125 42.390625 
Q 38.140625 42.390625 41.71875 45.5625 
Q 45.3125 48.734375 45.3125 54.390625 
Q 45.3125 60.0625 41.71875 63.234375 
Q 38.140625 66.40625 31.78125 66.40625 
Q 25.390625 66.40625 21.84375 63.234375 
Q 18.3125 60.0625 18.3125 54.390625 
z
" id="DejaVuSans-56"/>
      </defs>
      <g transform="translate(24.825 200.41162)scale(0.1 -0.1)">
       <use xlink:href="#DejaVuSans-49"/>
       <use x="63.623047" xlink:href="#DejaVuSans-56"/>
      </g>
     </g>
    </g>
    <g id="ytick_3">
     <g id="line2d_11">
      <g>
       <use style="stroke:#000000;stroke-width:0.8;" x="44.55" xlink:href="#m779f6419eb" y="166.282591"/>
      </g>
     </g>
     <g id="text_12">
      <!-- 20 -->
      <g transform="translate(24.825 170.08181)scale(0.1 -0.1)">
       <use xlink:href="#DejaVuSans-50"/>
       <use x="63.623047" xlink:href="#DejaVuSans-48"/>
      </g>
     </g>
    </g>
    <g id="ytick_4">
     <g id="line2d_12">
      <g>
       <use style="stroke:#000000;stroke-width:0.8;" x="44.55" xlink:href="#m779f6419eb" y="135.952781"/>
      </g>
     </g>
     <g id="text_13">
      <!-- 22 -->
      <g transform="translate(24.825 139.751999)scale(0.1 -0.1)">
       <use xlink:href="#DejaVuSans-50"/>
       <use x="63.623047" xlink:href="#DejaVuSans-50"/>
      </g>
     </g>
    </g>
    <g id="ytick_5">
     <g id="line2d_13">
      <g>
       <use style="stroke:#000000;stroke-width:0.8;" x="44.55" xlink:href="#m779f6419eb" y="105.62297"/>
      </g>
     </g>
     <g id="text_14">
      <!-- 24 -->
      <defs>
       <path d="M 37.796875 64.3125 
L 12.890625 25.390625 
L 37.796875 25.390625 
z
M 35.203125 72.90625 
L 47.609375 72.90625 
L 47.609375 25.390625 
L 58.015625 25.390625 
L 58.015625 17.1875 
L 47.609375 17.1875 
L 47.609375 0 
L 37.796875 0 
L 37.796875 17.1875 
L 4.890625 17.1875 
L 4.890625 26.703125 
z
" id="DejaVuSans-52"/>
      </defs>
      <g transform="translate(24.825 109.422189)scale(0.1 -0.1)">
       <use xlink:href="#DejaVuSans-50"/>
       <use x="63.623047" xlink:href="#DejaVuSans-52"/>
      </g>
     </g>
    </g>
    <g id="ytick_6">
     <g id="line2d_14">
      <g>
       <use style="stroke:#000000;stroke-width:0.8;" x="44.55" xlink:href="#m779f6419eb" y="75.29316"/>
      </g>
     </g>
     <g id="text_15">
      <!-- 26 -->
      <g transform="translate(24.825 79.092379)scale(0.1 -0.1)">
       <use xlink:href="#DejaVuSans-50"/>
       <use x="63.623047" xlink:href="#DejaVuSans-54"/>
      </g>
     </g>
    </g>
    <g id="ytick_7">
     <g id="line2d_15">
      <g>
       <use style="stroke:#000000;stroke-width:0.8;" x="44.55" xlink:href="#m779f6419eb" y="44.96335"/>
      </g>
     </g>
     <g id="text_16">
      <!-- 28 -->
      <g transform="translate(24.825 48.762569)scale(0.1 -0.1)">
       <use xlink:href="#DejaVuSans-50"/>
       <use x="63.623047" xlink:href="#DejaVuSans-56"/>
      </g>
     </g>
    </g>
    <g id="text_17">
     <!-- Over-estimation (%) -->
     <defs>
      <path d="M 39.40625 66.21875 
Q 28.65625 66.21875 22.328125 58.203125 
Q 16.015625 50.203125 16.015625 36.375 
Q 16.015625 22.609375 22.328125 14.59375 
Q 28.65625 6.59375 39.40625 6.59375 
Q 50.140625 6.59375 56.421875 14.59375 
Q 62.703125 22.609375 62.703125 36.375 
Q 62.703125 50.203125 56.421875 58.203125 
Q 50.140625 66.21875 39.40625 66.21875 
z
M 39.40625 74.21875 
Q 54.734375 74.21875 63.90625 63.9375 
Q 73.09375 53.65625 73.09375 36.375 
Q 73.09375 19.140625 63.90625 8.859375 
Q 54.734375 -1.421875 39.40625 -1.421875 
Q 24.03125 -1.421875 14.8125 8.828125 
Q 5.609375 19.09375 5.609375 36.375 
Q 5.609375 53.65625 14.8125 63.9375 
Q 24.03125 74.21875 39.40625 74.21875 
z
" id="DejaVuSans-79"/>
      <path d="M 2.984375 54.6875 
L 12.5 54.6875 
L 29.59375 8.796875 
L 46.6875 54.6875 
L 56.203125 54.6875 
L 35.6875 0 
L 23.484375 0 
z
" id="DejaVuSans-118"/>
      <path d="M 41.109375 46.296875 
Q 39.59375 47.171875 37.8125 47.578125 
Q 36.03125 48 33.890625 48 
Q 26.265625 48 22.1875 43.046875 
Q 18.109375 38.09375 18.109375 28.8125 
L 18.109375 0 
L 9.078125 0 
L 9.078125 54.6875 
L 18.109375 54.6875 
L 18.109375 46.1875 
Q 20.953125 51.171875 25.484375 53.578125 
Q 30.03125 56 36.53125 56 
Q 37.453125 56 38.578125 55.875 
Q 39.703125 55.765625 41.0625 55.515625 
z
" id="DejaVuSans-114"/>
      <path d="M 4.890625 31.390625 
L 31.203125 31.390625 
L 31.203125 23.390625 
L 4.890625 23.390625 
z
" id="DejaVuSans-45"/>
      <path d="M 30.609375 48.390625 
Q 23.390625 48.390625 19.1875 42.75 
Q 14.984375 37.109375 14.984375 27.296875 
Q 14.984375 17.484375 19.15625 11.84375 
Q 23.34375 6.203125 30.609375 6.203125 
Q 37.796875 6.203125 41.984375 11.859375 
Q 46.1875 17.53125 46.1875 27.296875 
Q 46.1875 37.015625 41.984375 42.703125 
Q 37.796875 48.390625 30.609375 48.390625 
z
M 30.609375 56 
Q 42.328125 56 49.015625 48.375 
Q 55.71875 40.765625 55.71875 27.296875 
Q 55.71875 13.875 49.015625 6.21875 
Q 42.328125 -1.421875 30.609375 -1.421875 
Q 18.84375 -1.421875 12.171875 6.21875 
Q 5.515625 13.875 5.515625 27.296875 
Q 5.515625 40.765625 12.171875 48.375 
Q 18.84375 56 30.609375 56 
z
" id="DejaVuSans-111"/>
      <path d="M 72.703125 32.078125 
Q 68.453125 32.078125 66.03125 28.46875 
Q 63.625 24.859375 63.625 18.40625 
Q 63.625 12.0625 66.03125 8.421875 
Q 68.453125 4.78125 72.703125 4.78125 
Q 76.859375 4.78125 79.265625 8.421875 
Q 81.6875 12.0625 81.6875 18.40625 
Q 81.6875 24.8125 79.265625 28.4375 
Q 76.859375 32.078125 72.703125 32.078125 
z
M 72.703125 38.28125 
Q 80.421875 38.28125 84.953125 32.90625 
Q 89.5 27.546875 89.5 18.40625 
Q 89.5 9.28125 84.9375 3.921875 
Q 80.375 -1.421875 72.703125 -1.421875 
Q 64.890625 -1.421875 60.34375 3.921875 
Q 55.8125 9.28125 55.8125 18.40625 
Q 55.8125 27.59375 60.375 32.9375 
Q 64.9375 38.28125 72.703125 38.28125 
z
M 22.3125 68.015625 
Q 18.109375 68.015625 15.6875 64.375 
Q 13.28125 60.75 13.28125 54.390625 
Q 13.28125 47.953125 15.671875 44.328125 
Q 18.0625 40.71875 22.3125 40.71875 
Q 26.5625 40.71875 28.96875 44.328125 
Q 31.390625 47.953125 31.390625 54.390625 
Q 31.390625 60.6875 28.953125 64.34375 
Q 26.515625 68.015625 22.3125 68.015625 
z
M 66.40625 74.21875 
L 74.21875 74.21875 
L 28.609375 -1.421875 
L 20.796875 -1.421875 
z
M 22.3125 74.21875 
Q 30.03125 74.21875 34.609375 68.875 
Q 39.203125 63.53125 39.203125 54.390625 
Q 39.203125 45.171875 34.640625 39.84375 
Q 30.078125 34.515625 22.3125 34.515625 
Q 14.546875 34.515625 10.03125 39.859375 
Q 5.515625 45.21875 5.515625 54.390625 
Q 5.515625 63.484375 10.046875 68.84375 
Q 14.59375 74.21875 22.3125 74.21875 
z
" id="DejaVuSans-37"/>
     </defs>
     <g transform="translate(18.745313 187.110156)rotate(-90)scale(0.1 -0.1)">
      <use xlink:href="#DejaVuSans-79"/>
      <use x="78.710938" xlink:href="#DejaVuSans-118"/>
      <use x="137.890625" xlink:href="#DejaVuSans-101"/>
      <use x="199.414062" xlink:href="#DejaVuSans-114"/>
      <use x="240.433594" xlink:href="#DejaVuSans-45"/>
      <use x="276.517578" xlink:href="#DejaVuSans-101"/>
      <use x="338.041016" xlink:href="#DejaVuSans-115"/>
      <use x="390.140625" xlink:href="#DejaVuSans-116"/>
      <use x="429.349609" xlink:href="#DejaVuSans-105"/>
      <use x="457.132812" xlink:href="#DejaVuSans-109"/>
      <use x="554.544922" xlink:href="#DejaVuSans-97"/>
      <use x="615.824219" xlink:href="#DejaVuSans-116"/>
      <use x="655.033203" xlink:href="#DejaVuSans-105"/>
      <use x="682.816406" xlink:href="#DejaVuSans-111"/>
      <use x="743.998047" xlink:href="#DejaVuSans-110"/>
      <use x="807.376953" xlink:href="#DejaVuSans-32"/>
      <use x="839.164062" xlink:href="#DejaVuSans-40"/>
      <use x="878.177734" xlink:href="#DejaVuSans-37"/>
      <use x="973.197266" xlink:href="#DejaVuSans-41"/>
     </g>
    </g>
   </g>
   <g id="line2d_16">
    <path clip-path="url(#pdfd1ca1c26)" d="M 65.070805 138.143284 
L 65.070805 36.772727 
" style="fill:none;stroke:#000000;stroke-linecap:square;stroke-width:2.625;"/>
   </g>
   <g id="line2d_17">
    <path clip-path="url(#pdfd1ca1c26)" d="M 85.28571 142.623683 
L 85.28571 66.663804 
" style="fill:none;stroke:#000000;stroke-linecap:square;stroke-width:2.625;"/>
   </g>
   <g id="line2d_18">
    <path clip-path="url(#pdfd1ca1c26)" d="M 109.557661 139.767944 
L 109.557661 70.901825 
" style="fill:none;stroke:#000000;stroke-linecap:square;stroke-width:2.625;"/>
   </g>
   <g id="line2d_19">
    <path clip-path="url(#pdfd1ca1c26)" d="M 145.178793 168.81054 
L 145.178793 105.524672 
" style="fill:none;stroke:#000000;stroke-linecap:square;stroke-width:2.625;"/>
   </g>
   <g id="line2d_20">
    <path clip-path="url(#pdfd1ca1c26)" d="M 185.641568 182.794539 
L 185.641568 124.232927 
" style="fill:none;stroke:#000000;stroke-linecap:square;stroke-width:2.625;"/>
   </g>
   <g id="line2d_21">
    <path clip-path="url(#pdfd1ca1c26)" d="M 238.950192 188.354837 
L 238.950192 122.646845 
" style="fill:none;stroke:#000000;stroke-linecap:square;stroke-width:2.625;"/>
   </g>
   <g id="line2d_22">
    <path clip-path="url(#pdfd1ca1c26)" d="M 294.028005 215.276487 
L 294.028005 176.87003 
" style="fill:none;stroke:#000000;stroke-linecap:square;stroke-width:2.625;"/>
   </g>
   <g id="line2d_23">
    <path clip-path="url(#pdfd1ca1c26)" d="M 391.950954 236.227273 
L 391.950954 198.873031 
" style="fill:none;stroke:#000000;stroke-linecap:square;stroke-width:2.625;"/>
   </g>
   <g id="line2d_24">
    <path clip-path="url(#pdfd1ca1c26)" d="M 44.55 100.092472 
L 48.266381 101.164973 
L 51.982763 102.237474 
L 55.699144 103.309975 
L 59.415526 104.382476 
L 63.131907 105.454977 
L 66.848288 106.527479 
L 70.56467 107.59998 
L 74.281051 108.672481 
L 77.997433 109.744982 
L 81.713814 110.817483 
L 85.430196 111.889984 
L 89.146577 112.962485 
L 92.862958 114.034986 
L 96.57934 115.107487 
L 100.295721 116.179989 
L 104.012103 117.25249 
L 107.728484 118.324991 
L 111.444865 119.397492 
L 115.161247 120.469993 
L 118.877628 121.542494 
L 122.59401 122.614995 
L 126.310391 123.687496 
L 130.026772 124.759997 
L 133.743154 125.832499 
L 137.459535 126.905 
L 141.175917 127.977501 
L 144.892298 129.050002 
L 148.60868 130.122503 
L 152.325061 131.195004 
L 156.041442 132.267505 
L 159.757824 133.340006 
L 163.474205 134.412507 
L 167.190587 135.485008 
L 170.906968 136.55751 
L 174.623349 137.630011 
L 178.339731 138.702512 
L 182.056112 139.775013 
L 185.772494 140.847514 
L 189.488875 141.920015 
L 193.205256 142.992516 
L 196.921638 144.065017 
L 200.638019 145.137518 
L 204.354401 146.21002 
L 208.070782 147.282521 
L 211.787163 148.355022 
L 215.503545 149.427523 
L 219.219926 150.500024 
L 222.936308 151.572525 
L 226.652689 152.645026 
L 230.369071 153.717527 
L 234.085452 154.790028 
L 237.801833 155.86253 
L 241.518215 156.935031 
L 245.234596 158.007532 
L 248.950978 159.080033 
L 252.667359 160.152534 
L 256.38374 161.225035 
L 260.100122 162.297536 
L 263.816503 163.370037 
L 267.532885 164.442538 
L 271.249266 165.515039 
L 274.965647 166.587541 
L 278.682029 167.660042 
L 282.39841 168.732543 
L 286.114792 169.805044 
L 289.831173 170.877545 
L 293.547555 171.950046 
L 297.263936 173.022547 
L 300.980317 174.095048 
L 304.696699 175.167549 
L 308.41308 176.240051 
L 312.129462 177.312552 
L 315.845843 178.385053 
L 319.562224 179.457554 
L 323.278606 180.530055 
L 326.994987 181.602556 
L 330.711369 182.675057 
L 334.42775 183.747558 
L 338.144131 184.820059 
L 341.860513 185.892561 
L 345.576894 186.965062 
L 349.293276 188.037563 
L 353.009657 189.110064 
L 356.726039 190.182565 
L 360.44242 191.255066 
L 364.158801 192.327567 
L 367.875183 193.400068 
L 371.591564 194.472569 
L 375.307946 195.54507 
L 379.024327 196.617572 
L 382.740708 197.690073 
L 386.45709 198.762574 
L 390.173471 199.835075 
L 393.889853 200.907576 
L 397.606234 201.980077 
L 401.322615 203.052578 
L 405.038997 204.125079 
L 408.755378 205.19758 
L 412.47176 206.270082 
" style="fill:none;stroke:#000000;stroke-linecap:square;stroke-width:2.25;"/>
   </g>
   <g id="patch_3">
    <path d="M 44.55 246.2 
L 44.55 26.8 
" style="fill:none;stroke:#000000;stroke-linecap:square;stroke-linejoin:miter;stroke-width:0.8;"/>
   </g>
   <g id="patch_4">
    <path d="M 412.47176 246.2 
L 412.47176 26.8 
" style="fill:none;stroke:#000000;stroke-linecap:square;stroke-linejoin:miter;stroke-width:0.8;"/>
   </g>
   <g id="patch_5">
    <path d="M 44.55 246.2 
L 412.47176 246.2 
" style="fill:none;stroke:#000000;stroke-linecap:square;stroke-linejoin:miter;stroke-width:0.8;"/>
   </g>
   <g id="patch_6">
    <path d="M 44.55 26.8 
L 412.47176 26.8 
" style="fill:none;stroke:#000000;stroke-linecap:square;stroke-linejoin:miter;stroke-width:0.8;"/>
   </g>
   <g id="text_18">
    <!-- Distance approximation error -->
    <defs>
     <path d="M 18.109375 8.203125 
L 18.109375 -20.796875 
L 9.078125 -20.796875 
L 9.078125 54.6875 
L 18.109375 54.6875 
L 18.109375 46.390625 
Q 20.953125 51.265625 25.265625 53.625 
Q 29.59375 56 35.59375 56 
Q 45.5625 56 51.78125 48.09375 
Q 58.015625 40.1875 58.015625 27.296875 
Q 58.015625 14.40625 51.78125 6.484375 
Q 45.5625 -1.421875 35.59375 -1.421875 
Q 29.59375 -1.421875 25.265625 0.953125 
Q 20.953125 3.328125 18.109375 8.203125 
z
M 48.6875 27.296875 
Q 48.6875 37.203125 44.609375 42.84375 
Q 40.53125 48.484375 33.40625 48.484375 
Q 26.265625 48.484375 22.1875 42.84375 
Q 18.109375 37.203125 18.109375 27.296875 
Q 18.109375 17.390625 22.1875 11.75 
Q 26.265625 6.109375 33.40625 6.109375 
Q 40.53125 6.109375 44.609375 11.75 
Q 48.6875 17.390625 48.6875 27.296875 
z
" id="DejaVuSans-112"/>
     <path d="M 54.890625 54.6875 
L 35.109375 28.078125 
L 55.90625 0 
L 45.3125 0 
L 29.390625 21.484375 
L 13.484375 0 
L 2.875 0 
L 24.125 28.609375 
L 4.6875 54.6875 
L 15.28125 54.6875 
L 29.78125 35.203125 
L 44.28125 54.6875 
z
" id="DejaVuSans-120"/>
    </defs>
    <g transform="translate(140.041817 20.8)scale(0.12 -0.12)">
     <use xlink:href="#DejaVuSans-68"/>
     <use x="77.001953" xlink:href="#DejaVuSans-105"/>
     <use x="104.785156" xlink:href="#DejaVuSans-115"/>
     <use x="156.884766" xlink:href="#DejaVuSans-116"/>
     <use x="196.09375" xlink:href="#DejaVuSans-97"/>
     <use x="257.373047" xlink:href="#DejaVuSans-110"/>
     <use x="320.751953" xlink:href="#DejaVuSans-99"/>
     <use x="375.732422" xlink:href="#DejaVuSans-101"/>
     <use x="437.255859" xlink:href="#DejaVuSans-32"/>
     <use x="469.042969" xlink:href="#DejaVuSans-97"/>
     <use x="530.322266" xlink:href="#DejaVuSans-112"/>
     <use x="593.798828" xlink:href="#DejaVuSans-112"/>
     <use x="657.275391" xlink:href="#DejaVuSans-114"/>
     <use x="698.357422" xlink:href="#DejaVuSans-111"/>
     <use x="759.492188" xlink:href="#DejaVuSans-120"/>
     <use x="818.671875" xlink:href="#DejaVuSans-105"/>
     <use x="846.455078" xlink:href="#DejaVuSans-109"/>
     <use x="943.867188" xlink:href="#DejaVuSans-97"/>
     <use x="1005.146484" xlink:href="#DejaVuSans-116"/>
     <use x="1044.355469" xlink:href="#DejaVuSans-105"/>
     <use x="1072.138672" xlink:href="#DejaVuSans-111"/>
     <use x="1133.320312" xlink:href="#DejaVuSans-110"/>
     <use x="1196.699219" xlink:href="#DejaVuSans-32"/>
     <use x="1228.486328" xlink:href="#DejaVuSans-101"/>
     <use x="1290.009766" xlink:href="#DejaVuSans-114"/>
     <use x="1331.107422" xlink:href="#DejaVuSans-114"/>
     <use x="1372.189453" xlink:href="#DejaVuSans-111"/>
     <use x="1433.371094" xlink:href="#DejaVuSans-114"/>
    </g>
   </g>
  </g>
 </g>
 <defs>
  <clipPath id="pdfd1ca1c26">
   <rect height="219.4" width="367.92176" x="44.55" y="26.8"/>
  </clipPath>
 </defs>
</svg>
